<?xml version="1.0" encoding="UTF-8"?>
<svg width="234px" height="46px" viewBox="0 0 234 46" version="1.1" xmlns="http://www.w3.org/2000/svg" xmlns:xlink="http://www.w3.org/1999/xlink">
    <g id="Page-1" stroke="none" stroke-width="1" fill="none" fill-rule="evenodd">
        <g id="Desktop-HD" transform="translate(-605.000000, -457.000000)" fill="#FFFFFF">
            <g id="Group" transform="translate(601.000000, 451.000000)">
                <path d="M4.28564453,24.7392578 L4.71240234,22.5830078 C8.11150788,22.672852 9.82600896,22.7177734 9.85595703,22.7177734 C12.4913869,22.7177734 14.4080344,22.672852 15.605957,22.5830078 L15.246582,24.7392578 L12.753418,24.7392578 L16.5268555,37.2949219 L23.8041992,25.75 C23.9838876,25.5104155 24.0737305,25.3382167 24.0737305,25.2333984 C24.0737305,24.9039697 23.4298567,24.7392578 22.1420898,24.7392578 L21.9624023,24.7392578 L22.3666992,22.5830078 C23.9239987,22.672852 25.2941022,22.7177734 26.4770508,22.7177734 C27.7648176,22.7177734 28.985183,22.672852 30.1381836,22.5830078 L29.7338867,24.7392578 C28.8204707,24.7392578 28.1167017,24.7766923 27.6225586,24.8515625 C27.1284155,24.9264327 26.8214524,25.020019 26.7016602,25.1323242 C26.5818679,25.2446295 26.4246429,25.4355455 26.2299805,25.7050781 L15.8979492,42.0341797 C15.7182608,42.3037123 15.5722662,42.5021152 15.4599609,42.6293945 C15.3476557,42.7566738 15.16797,42.8802077 14.9208984,43 C14.6738269,43.1197923 14.3706073,43.1796875 14.0112305,43.1796875 C13.7117498,43.1796875 13.4833992,43.1647137 13.3261719,43.1347656 C13.1689445,43.1048176 12.9967457,43.0000009 12.8095703,42.8203125 C12.6223949,42.6406241 12.4838872,42.3636086 12.394043,41.9892578 L7.22802734,24.7392578 L4.28564453,24.7392578 Z" id="v"></path>
                <path d="M30.5,35.28 C30.5,33.3866572 30.7533308,31.6600078 31.26,30.1 C31.7666692,28.5399922 32.4799954,27.2000056 33.4,26.08 C34.3200046,24.9599944 35.4199936,24.0866698 36.7,23.46 C37.9800064,22.8333302 39.3933256,22.52 40.94,22.52 C41.9000048,22.52 42.779996,22.6933316 43.58,23.04 C44.380004,23.3866684 45.0666638,23.8733302 45.64,24.5 C46.2133362,25.1266698 46.6599984,25.8799956 46.98,26.76 C47.3000016,27.6400044 47.46,28.613328 47.46,29.68 C47.46,30.2666696 47.4333336,30.8733302 47.38,31.5 C47.3266664,32.1266698 47.2200008,32.7866632 47.06,33.48 L33.14,33.48 C33.0599996,34.013336 33.02,34.5333308 33.02,35.04 C33.02,35.973338 33.1666652,36.8333294 33.46,37.62 C33.7533348,38.4066706 34.1599974,39.0799972 34.68,39.64 C35.2000026,40.2000028 35.8199964,40.6399984 36.54,40.96 C37.2600036,41.2800016 38.0599956,41.44 38.94,41.44 C39.9533384,41.44 40.9666616,41.273335 41.98,40.94 C42.9933384,40.606665 43.966662,40.1333364 44.9,39.52 L44.46,42.08 C42.5133236,43.013338 40.5133436,43.48 38.46,43.48 C37.3133276,43.48 36.2533382,43.2733354 35.28,42.86 C34.3066618,42.4466646 33.4666702,41.8800036 32.76,41.16 C32.0533298,40.4399964 31.500002,39.580005 31.1,38.58 C30.699998,37.579995 30.5,36.480006 30.5,35.28 Z M44.9,31.6 C44.9533336,31.2799984 44.9933332,30.9666682 45.02,30.66 C45.0466668,30.3533318 45.06,30.0533348 45.06,29.76 C45.06,28.2133256 44.660004,26.9600048 43.86,26 C43.059996,25.0399952 42.0066732,24.56 40.7,24.56 C38.9399912,24.56 37.426673,25.1799938 36.16,26.42 C34.893327,27.6600062 33.993336,29.3866556 33.46,31.6 L44.9,31.6 Z M50.38,35.4 C50.38,33.5599908 50.6533306,31.8533412 51.2,30.28 C51.7466694,28.7066588 52.5133284,27.3466724 53.5,26.2 C54.4866716,25.0533276 55.6599932,24.1533366 57.02,23.5 C58.3800068,22.8466634 59.859992,22.52 61.46,22.52 C63.46001,22.52 65.3533244,23.0933276 67.14,24.24 L66.7,26.52 C65.8733292,25.9066636 65.0200044,25.433335 64.14,25.1 C63.2599956,24.766665 62.3933376,24.6 61.54,24.6 C60.3133272,24.6 59.1733386,24.866664 58.12,25.4 C57.0666614,25.933336 56.1600038,26.666662 55.4,27.6 C54.6399962,28.533338 54.0466688,29.633327 53.62,30.9 C53.1933312,32.166673 52.98,33.5466592 52.98,35.04 C52.98,36.9600096 53.5066614,38.4999942 54.56,39.66 C55.6133386,40.8200058 57.0333244,41.4 58.82,41.4 C59.6733376,41.4 60.5533288,41.266668 61.46,41 C62.3666712,40.733332 63.286662,40.3200028 64.22,39.76 L63.78,42.2 C62.0199912,43.0533376 60.206676,43.48 58.34,43.48 C57.1666608,43.48 56.0933382,43.280002 55.12,42.88 C54.1466618,42.479998 53.3066702,41.9266702 52.6,41.22 C51.8933298,40.5133298 51.3466686,39.6666716 50.96,38.68 C50.5733314,37.6933284 50.38,36.600006 50.38,35.4 Z M76.54,23 L83.7,23 L83.3,25 L76.18,25 L73.82,37.28 C73.7399996,37.7333356 73.7,38.1733312 73.7,38.6 C73.7,39.4533376 73.9733306,40.1333308 74.52,40.64 C75.0666694,41.1466692 75.8333284,41.4 76.82,41.4 C77.886672,41.4 79.0999932,41.0266704 80.46,40.28 L80.02,42.68 C78.6599932,43.213336 77.4066724,43.48 76.26,43.48 C74.7133256,43.48 73.4800046,43.0666708 72.56,42.24 C71.6399954,41.4133292 71.18,40.3066736 71.18,38.92 C71.18,38.6799988 71.1933332,38.426668 71.22,38.16 C71.2466668,37.893332 71.2866664,37.626668 71.34,37.36 L73.66,25 L69.7,25 L70.06,23 L74.02,23 L75.06,17.36 L77.58,17.36 L76.54,23 Z M84.7,35.4 C84.7,33.533324 84.966664,31.8133412 85.5,30.24 C86.033336,28.6666588 86.7733286,27.3066724 87.72,26.16 C88.6666714,25.0133276 89.80666,24.1200032 91.14,23.48 C92.47334,22.8399968 93.939992,22.52 95.54,22.52 C96.6866724,22.52 97.7333286,22.7133314 98.68,23.1 C99.6266714,23.4866686 100.439997,24.0266632 101.12,24.72 C101.800003,25.4133368 102.319998,26.2533284 102.68,27.24 C103.040002,28.2266716 103.22,29.3333272 103.22,30.56 C103.22,32.426676 102.953336,34.1533254 102.42,35.74 C101.886664,37.3266746 101.140005,38.6933276 100.18,39.84 C99.2199952,40.9866724 98.0800066,41.8799968 96.76,42.52 C95.4399934,43.1600032 93.9933412,43.48 92.42,43.48 C91.2466608,43.48 90.1866714,43.2866686 89.24,42.9 C88.2933286,42.5133314 87.4800034,41.9733368 86.8,41.28 C86.1199966,40.5866632 85.6000018,39.740005 85.24,38.74 C84.8799982,37.739995 84.7,36.6266728 84.7,35.4 Z M87.3,35.08 C87.3,37.0000096 87.7799952,38.5333276 88.74,39.68 C89.7000048,40.8266724 90.9933252,41.4 92.62,41.4 C93.7400056,41.4 94.7866618,41.1266694 95.76,40.58 C96.7333382,40.0333306 97.586663,39.2866714 98.32,38.34 C99.053337,37.3933286 99.6266646,36.2800064 100.04,35 C100.453335,33.7199936 100.66,32.346674 100.66,30.88 C100.66,28.9599904 100.173338,27.433339 99.2,26.3 C98.2266618,25.166661 96.9266748,24.6 95.3,24.6 C94.1799944,24.6 93.1333382,24.8733306 92.16,25.42 C91.1866618,25.9666694 90.3400036,26.7133286 89.62,27.66 C88.8999964,28.6066714 88.3333354,29.713327 87.92,30.98 C87.5066646,32.246673 87.3,33.613326 87.3,35.08 Z M110.06,23 L112.54,23 L112.1,25.24 C113.966676,23.4266576 115.926656,22.52 117.98,22.52 C118.886671,22.52 119.67333,22.7066648 120.34,23.08 L119.9,25.4 C119.126663,24.9733312 118.353337,24.76 117.58,24.76 C115.526656,24.76 113.54001,25.8399892 111.62,28 L108.82,43 L106.3,43 L110.06,23 Z M130.18,39.36 C131.113338,40.02667 132.046662,40.5399982 132.98,40.9 C133.913338,41.2600018 134.819996,41.44 135.7,41.44 C137.060007,41.44 138.153329,41.1000034 138.98,40.42 C139.806671,39.7399966 140.22,38.8400056 140.22,37.72 C140.22,36.9999964 140.020002,36.3933358 139.62,35.9 C139.219998,35.4066642 138.713336,34.9733352 138.1,34.6 C137.486664,34.2266648 136.833337,33.8666684 136.14,33.52 C135.446663,33.1733316 134.793336,32.7733356 134.18,32.32 C133.566664,31.8666644 133.060002,31.3200032 132.66,30.68 C132.259998,30.0399968 132.06,29.2400048 132.06,28.28 C132.06,27.4266624 132.226665,26.6466702 132.56,25.94 C132.893335,25.2333298 133.359997,24.6266692 133.96,24.12 C134.560003,23.6133308 135.279996,23.2200014 136.12,22.94 C136.960004,22.6599986 137.886662,22.52 138.9,22.52 C139.780004,22.52 140.679995,22.6466654 141.6,22.9 C142.520005,23.1533346 143.446662,23.546664 144.38,24.08 L143.98,26.36 C142.219991,25.159994 140.526675,24.56 138.9,24.56 C137.619994,24.56 136.573337,24.8866634 135.76,25.54 C134.946663,26.1933366 134.54,27.053328 134.54,28.12 C134.54,28.8133368 134.739998,29.393331 135.14,29.86 C135.540002,30.326669 136.046664,30.7466648 136.66,31.12 C137.273336,31.4933352 137.926663,31.8533316 138.62,32.2 C139.313337,32.5466684 139.966664,32.953331 140.58,33.42 C141.193336,33.886669 141.699998,34.4466634 142.1,35.1 C142.500002,35.7533366 142.7,36.5733284 142.7,37.56 C142.7,38.4400044 142.533335,39.2399964 142.2,39.96 C141.866665,40.6800036 141.38667,41.2999974 140.76,41.82 C140.13333,42.3400026 139.393338,42.7466652 138.54,43.04 C137.686662,43.3333348 136.740005,43.48 135.7,43.48 C134.739995,43.48 133.760005,43.3266682 132.76,43.02 C131.759995,42.7133318 130.766672,42.2666696 129.78,41.68 L130.18,39.36 Z M162.14,43 L159.7,43 L159.98,41.2 C158.166658,42.7200076 156.30001,43.48 154.38,43.48 C153.313328,43.48 152.340004,43.2933352 151.46,42.92 C150.579996,42.5466648 149.820003,42.0133368 149.18,41.32 C148.539997,40.6266632 148.046668,39.7933382 147.7,38.82 C147.353332,37.8466618 147.18,36.7733392 147.18,35.6 C147.18,33.7066572 147.439997,31.960008 147.96,30.36 C148.480003,28.759992 149.199995,27.3800058 150.12,26.22 C151.040005,25.0599942 152.12666,24.1533366 153.38,23.5 C154.63334,22.8466634 156.006659,22.52 157.5,22.52 C158.433338,22.52 159.373329,22.7066648 160.32,23.08 C161.266671,23.4533352 162.179996,24.0133296 163.06,24.76 L163.42,23 L165.9,23 L162.14,43 Z M149.78,35.2 C149.78,37.1466764 150.233329,38.6666612 151.14,39.76 C152.046671,40.8533388 153.313325,41.4 154.94,41.4 C155.846671,41.4 156.759995,41.1600024 157.68,40.68 C158.600005,40.1999976 159.513329,39.5200044 160.42,38.64 L162.66,26.88 C161.859996,26.1066628 161.033338,25.5400018 160.18,25.18 C159.326662,24.8199982 158.473338,24.64 157.62,24.64 C156.499994,24.64 155.460005,24.906664 154.5,25.44 C153.539995,25.973336 152.70667,26.706662 152,27.64 C151.29333,28.573338 150.746669,29.6866602 150.36,30.98 C149.973331,32.2733398 149.78,33.6799924 149.78,35.2 Z M173.7,25 L169.74,25 L170.1,23 L174.06,23 L174.86,18.76 C175.153335,17.2133256 175.833328,15.9933378 176.9,15.1 C177.966672,14.2066622 179.273326,13.76 180.82,13.76 C181.513337,13.76 182.226663,13.8666656 182.96,14.08 C183.693337,14.2933344 184.446663,14.5866648 185.22,14.96 L184.78,17.08 C183.44666,16.2533292 182.220006,15.84 181.1,15.84 C180.086662,15.84 179.24667,16.1333304 178.58,16.72 C177.91333,17.3066696 177.473334,18.133328 177.26,19.2 L176.58,23 L182.82,23 L182.46,25 L176.22,25 L171.78,48.64 L169.26,48.64 L173.7,25 Z M182.86,35.28 C182.86,33.3866572 183.113331,31.6600078 183.62,30.1 C184.126669,28.5399922 184.839995,27.2000056 185.76,26.08 C186.680005,24.9599944 187.779994,24.0866698 189.06,23.46 C190.340006,22.8333302 191.753326,22.52 193.3,22.52 C194.260005,22.52 195.139996,22.6933316 195.94,23.04 C196.740004,23.3866684 197.426664,23.8733302 198,24.5 C198.573336,25.1266698 199.019998,25.8799956 199.34,26.76 C199.660002,27.6400044 199.82,28.613328 199.82,29.68 C199.82,30.2666696 199.793334,30.8733302 199.74,31.5 C199.686666,32.1266698 199.580001,32.7866632 199.42,33.48 L185.5,33.48 C185.42,34.013336 185.38,34.5333308 185.38,35.04 C185.38,35.973338 185.526665,36.8333294 185.82,37.62 C186.113335,38.4066706 186.519997,39.0799972 187.04,39.64 C187.560003,40.2000028 188.179996,40.6399984 188.9,40.96 C189.620004,41.2800016 190.419996,41.44 191.3,41.44 C192.313338,41.44 193.326662,41.273335 194.34,40.94 C195.353338,40.606665 196.326662,40.1333364 197.26,39.52 L196.82,42.08 C194.873324,43.013338 192.873344,43.48 190.82,43.48 C189.673328,43.48 188.613338,43.2733354 187.64,42.86 C186.666662,42.4466646 185.82667,41.8800036 185.12,41.16 C184.41333,40.4399964 183.860002,39.580005 183.46,38.58 C183.059998,37.579995 182.86,36.480006 182.86,35.28 Z M197.26,31.6 C197.313334,31.2799984 197.353333,30.9666682 197.38,30.66 C197.406667,30.3533318 197.42,30.0533348 197.42,29.76 C197.42,28.2133256 197.020004,26.9600048 196.22,26 C195.419996,25.0399952 194.366673,24.56 193.06,24.56 C191.299991,24.56 189.786673,25.1799938 188.52,26.42 C187.253327,27.6600062 186.353336,29.3866556 185.82,31.6 L197.26,31.6 Z M210.34,23 L217.5,23 L217.1,25 L209.98,25 L207.62,37.28 C207.54,37.7333356 207.5,38.1733312 207.5,38.6 C207.5,39.4533376 207.773331,40.1333308 208.32,40.64 C208.866669,41.1466692 209.633328,41.4 210.62,41.4 C211.686672,41.4 212.899993,41.0266704 214.26,40.28 L213.82,42.68 C212.459993,43.213336 211.206672,43.48 210.06,43.48 C208.513326,43.48 207.280005,43.0666708 206.36,42.24 C205.439995,41.4133292 204.98,40.3066736 204.98,38.92 C204.98,38.6799988 204.993333,38.426668 205.02,38.16 C205.046667,37.893332 205.086666,37.626668 205.14,37.36 L207.46,25 L203.5,25 L203.86,23 L207.82,23 L208.86,17.36 L211.38,17.36 L210.34,23 Z M220.66,51.76 L218.1,51.76 L223.58,42.4 L219.74,23 L222.18,23 L225.22,39.52 L234.38,23 L237.1,23 L220.66,51.76 Z" id="ector-safety"></path>
                <path id="Line" d="M19.0677392,11.8 L7,11.8 L6.5,11.8 L6.5,10.8 L7,10.8 L19.0677392,10.8 L19.0677392,6.8 L28.0677392,11.3 L19.0677392,15.8 L19.0677392,11.8 Z" fill-rule="nonzero"></path>
            </g>
        </g>
    </g>
</svg>